<mxfile host="app.diagrams.net" agent="Mozilla/5.0 (Windows NT 10.0; Win64; x64) AppleWebKit/537.36 (KHTML, like Gecko) Chrome/131.0.0.0 Safari/537.36 OPR/116.0.0.0" version="26.0.16">
  <diagram id="C5RBs43oDa-KdzZeNtuy" name="Page-1">
    <mxGraphModel dx="1059" dy="1821" grid="1" gridSize="10" guides="1" tooltips="1" connect="1" arrows="1" fold="1" page="1" pageScale="1" pageWidth="827" pageHeight="1169" math="0" shadow="0">
      <root>
        <mxCell id="WIyWlLk6GJQsqaUBKTNV-0" />
        <mxCell id="WIyWlLk6GJQsqaUBKTNV-1" parent="WIyWlLk6GJQsqaUBKTNV-0" />
        <mxCell id="-vmGIMhZxHUPoDyutSSc-6" value="YES" style="edgeStyle=none;curved=1;rounded=0;orthogonalLoop=1;jettySize=auto;html=1;fontSize=12;startSize=8;endSize=8;" edge="1" parent="WIyWlLk6GJQsqaUBKTNV-1" source="WIyWlLk6GJQsqaUBKTNV-6" target="-vmGIMhZxHUPoDyutSSc-5">
          <mxGeometry relative="1" as="geometry" />
        </mxCell>
        <mxCell id="-vmGIMhZxHUPoDyutSSc-14" value="NO" style="edgeStyle=orthogonalEdgeStyle;rounded=0;orthogonalLoop=1;jettySize=auto;html=1;entryX=1;entryY=0.5;entryDx=0;entryDy=0;fontSize=12;startSize=8;endSize=8;" edge="1" parent="WIyWlLk6GJQsqaUBKTNV-1" source="WIyWlLk6GJQsqaUBKTNV-6" target="-vmGIMhZxHUPoDyutSSc-10">
          <mxGeometry relative="1" as="geometry">
            <Array as="points">
              <mxPoint x="470" y="230" />
              <mxPoint x="470" y="320" />
            </Array>
          </mxGeometry>
        </mxCell>
        <mxCell id="WIyWlLk6GJQsqaUBKTNV-6" value="FOR (i = 1; i&amp;lt;1000;i=i+1)" style="rhombus;whiteSpace=wrap;html=1;shadow=0;fontFamily=Helvetica;fontSize=12;align=center;strokeWidth=1;spacing=6;spacingTop=-4;" parent="WIyWlLk6GJQsqaUBKTNV-1" vertex="1">
          <mxGeometry x="120" y="170" width="200" height="120" as="geometry" />
        </mxCell>
        <mxCell id="-vmGIMhZxHUPoDyutSSc-2" value="" style="edgeStyle=none;curved=1;rounded=0;orthogonalLoop=1;jettySize=auto;html=1;fontSize=12;startSize=8;endSize=8;" edge="1" parent="WIyWlLk6GJQsqaUBKTNV-1" source="-vmGIMhZxHUPoDyutSSc-1" target="-vmGIMhZxHUPoDyutSSc-3">
          <mxGeometry relative="1" as="geometry" />
        </mxCell>
        <mxCell id="-vmGIMhZxHUPoDyutSSc-1" value="START" style="ellipse;whiteSpace=wrap;html=1;" vertex="1" parent="WIyWlLk6GJQsqaUBKTNV-1">
          <mxGeometry x="160" y="-40" width="120" height="80" as="geometry" />
        </mxCell>
        <mxCell id="-vmGIMhZxHUPoDyutSSc-4" value="" style="edgeStyle=none;curved=1;rounded=0;orthogonalLoop=1;jettySize=auto;html=1;fontSize=12;startSize=8;endSize=8;" edge="1" parent="WIyWlLk6GJQsqaUBKTNV-1" source="-vmGIMhZxHUPoDyutSSc-3" target="WIyWlLk6GJQsqaUBKTNV-6">
          <mxGeometry relative="1" as="geometry" />
        </mxCell>
        <mxCell id="-vmGIMhZxHUPoDyutSSc-3" value="JUMLAH=0" style="rounded=0;whiteSpace=wrap;html=1;" vertex="1" parent="WIyWlLk6GJQsqaUBKTNV-1">
          <mxGeometry x="160" y="70" width="120" height="60" as="geometry" />
        </mxCell>
        <mxCell id="-vmGIMhZxHUPoDyutSSc-8" value="YES" style="edgeStyle=none;curved=1;rounded=0;orthogonalLoop=1;jettySize=auto;html=1;fontSize=12;startSize=8;endSize=8;" edge="1" parent="WIyWlLk6GJQsqaUBKTNV-1" source="-vmGIMhZxHUPoDyutSSc-5" target="-vmGIMhZxHUPoDyutSSc-7">
          <mxGeometry relative="1" as="geometry" />
        </mxCell>
        <mxCell id="-vmGIMhZxHUPoDyutSSc-17" value="NO" style="edgeStyle=none;curved=1;rounded=0;orthogonalLoop=1;jettySize=auto;html=1;fontSize=12;startSize=8;endSize=8;exitX=0;exitY=0.5;exitDx=0;exitDy=0;" edge="1" parent="WIyWlLk6GJQsqaUBKTNV-1" source="-vmGIMhZxHUPoDyutSSc-5">
          <mxGeometry relative="1" as="geometry">
            <mxPoint x="120" y="230" as="targetPoint" />
          </mxGeometry>
        </mxCell>
        <mxCell id="-vmGIMhZxHUPoDyutSSc-5" value="I % 3==0&lt;br&gt;OR&lt;div&gt;i % 5==0&lt;/div&gt;" style="rhombus;whiteSpace=wrap;html=1;shadow=0;fontFamily=Helvetica;fontSize=12;align=center;strokeWidth=1;spacing=6;spacingTop=-4;" vertex="1" parent="WIyWlLk6GJQsqaUBKTNV-1">
          <mxGeometry x="120" y="320" width="200" height="120" as="geometry" />
        </mxCell>
        <mxCell id="-vmGIMhZxHUPoDyutSSc-9" style="edgeStyle=orthogonalEdgeStyle;rounded=0;orthogonalLoop=1;jettySize=auto;html=1;fontSize=12;startSize=8;endSize=8;entryX=0;entryY=0.5;entryDx=0;entryDy=0;" edge="1" parent="WIyWlLk6GJQsqaUBKTNV-1" source="-vmGIMhZxHUPoDyutSSc-7" target="WIyWlLk6GJQsqaUBKTNV-6">
          <mxGeometry relative="1" as="geometry">
            <mxPoint x="20" y="460" as="targetPoint" />
            <Array as="points">
              <mxPoint x="20" y="510" />
              <mxPoint x="20" y="230" />
            </Array>
          </mxGeometry>
        </mxCell>
        <mxCell id="-vmGIMhZxHUPoDyutSSc-7" value="JUMLAH = JUMLAH+i" style="rounded=0;whiteSpace=wrap;html=1;" vertex="1" parent="WIyWlLk6GJQsqaUBKTNV-1">
          <mxGeometry x="150" y="480" width="140" height="60" as="geometry" />
        </mxCell>
        <mxCell id="-vmGIMhZxHUPoDyutSSc-13" value="" style="edgeStyle=none;curved=1;rounded=0;orthogonalLoop=1;jettySize=auto;html=1;fontSize=12;startSize=8;endSize=8;" edge="1" parent="WIyWlLk6GJQsqaUBKTNV-1" source="-vmGIMhZxHUPoDyutSSc-10" target="-vmGIMhZxHUPoDyutSSc-12">
          <mxGeometry relative="1" as="geometry" />
        </mxCell>
        <mxCell id="-vmGIMhZxHUPoDyutSSc-10" value="PRINT JUMLAH" style="shape=parallelogram;perimeter=parallelogramPerimeter;whiteSpace=wrap;html=1;fixedSize=1;" vertex="1" parent="WIyWlLk6GJQsqaUBKTNV-1">
          <mxGeometry x="310" y="290" width="120" height="60" as="geometry" />
        </mxCell>
        <mxCell id="-vmGIMhZxHUPoDyutSSc-12" value="END" style="ellipse;whiteSpace=wrap;html=1;" vertex="1" parent="WIyWlLk6GJQsqaUBKTNV-1">
          <mxGeometry x="310" y="470" width="120" height="80" as="geometry" />
        </mxCell>
      </root>
    </mxGraphModel>
  </diagram>
</mxfile>
